<svg xmlns="http://www.w3.org/2000/svg" xml:space="preserve" width="1500" height="1500" data-id="lg_Vl1ERngDV8EfU1Sdxk" data-version="1"><path fill="#03424c" stroke="transparent" d="M0 0h1500v1500H0z"/><g data-padding="20"><g transform="translate(-573.792 -578.88)scale(1.7249)"><rect width="367.36" height="348.25" x="134.415" y="148.082" fill="none" stroke="#f56607" stroke-width="4" rx="0" ry="0" transform="translate(333.53 399.87)scale(1.15)"/><rect width="43.68" height="195.8" x="296.255" y="224.312" fill="#03424c" rx="0" ry="0" transform="translate(545.06 399.93)scale(1.15)"/><path fill="#f56607" stroke="transparent" d="M909.58 699.094v135.14h-28.93l-52.11-88.96v88.96h-27.05v-135.14h28.93l52.12 89.06v-89.06Zm79.17 27.05h-27.04v54.09h27.04q5.56 0 10.46-2.12t8.58-5.79q3.67-3.68 5.79-8.63 2.13-4.95 2.13-10.51t-2.13-10.5q-2.12-4.95-5.79-8.63-3.68-3.67-8.58-5.79t-10.46-2.12m-27.04 81.04v27.05h-27.05v-135.14h54.09q7.45 0 14.33 1.93 6.88 1.94 12.86 5.47t10.93 8.48 8.48 10.98q3.54 6.03 5.47 12.91t1.93 14.32q0 11.12-4.24 20.97t-11.59 17.2-17.2 11.59-20.97 4.24Z"/><rect width="257.51" height="218.09" x="237.059" y="261.504" fill="none" rx="0" ry="0" transform="translate(552.24 400.25)"/></g><path fill="transparent" stroke="transparent" stroke-width="1.789" d="M250 392.218h1000v715.564H250z"/></g></svg>